<svg width="161" height="39" viewBox="0 0 161 39" fill="none" xmlns="http://www.w3.org/2000/svg">
<path d="M8.35104 8.42128V28.8637V30.0545H29.9843V28.8637V18.9402M13.9082 25.8948V8.42128H15.099H29.9843V9.81056V18.9402M29.9843 18.9402H24.824V15.5662V13.78H22.0455H18.8699V18.9402V24.8943H24.824V19.3371M29.9843 18.9402H35.9384M35.9384 18.9402V2.66565H18.8699H7.9541H2V29.2606V33.8254V36.4055H18.8699H35.9384V18.9402Z" stroke="white" stroke-width="2.71134" stroke-linecap="round" stroke-linejoin="round"/>
<path d="M45.0213 3.94902C46.179 3.94902 47.1477 4.05869 47.9276 4.27804C48.7197 4.4852 49.3107 4.83249 49.7006 5.31992C50.1028 5.79517 50.3038 6.44102 50.3038 7.25746C50.3038 7.74489 50.2246 8.18968 50.0662 8.59181C49.9078 8.99394 49.6763 9.32295 49.3716 9.57886C49.0792 9.83476 48.7197 9.99927 48.2932 10.0724V10.1638C48.7319 10.2491 49.1279 10.4014 49.4813 10.6207C49.8347 10.8401 50.115 11.1569 50.3221 11.5712C50.5293 11.9855 50.6329 12.5339 50.6329 13.2163C50.6329 14.0084 50.4379 14.6908 50.0479 15.2635C49.6702 15.8241 49.1218 16.2567 48.4029 16.5613C47.6839 16.8538 46.8309 17 45.8438 17H40.9634V3.94902H45.0213ZM45.332 9.12189C46.1363 9.12189 46.6908 8.99394 46.9954 8.73804C47.3122 8.48214 47.4707 8.11047 47.4707 7.62304C47.4707 7.12342 47.2879 6.76394 46.9223 6.5446C46.5567 6.32525 45.9779 6.21558 45.1858 6.21558H43.7235V9.12189H45.332ZM43.7235 11.3153V14.7152H45.5331C46.3617 14.7152 46.9406 14.5567 47.2696 14.2399C47.5986 13.9109 47.7631 13.4783 47.7631 12.9421C47.7631 12.6131 47.69 12.3268 47.5438 12.083C47.4097 11.8393 47.1721 11.6504 46.8309 11.5164C46.4897 11.3824 46.0266 11.3153 45.4417 11.3153H43.7235ZM57.1195 6.81878C58.4599 6.81878 59.4836 7.11123 60.1903 7.69615C60.9093 8.26888 61.2688 9.15235 61.2688 10.3466V17H59.3678L58.8377 15.6474H58.7646C58.4843 16.0008 58.1919 16.2932 57.8872 16.5248C57.5948 16.7563 57.2536 16.9208 56.8636 17.0183C56.4858 17.128 56.0167 17.1828 55.4561 17.1828C54.8712 17.1828 54.3411 17.0731 53.8659 16.8538C53.4028 16.6222 53.0373 16.2749 52.7692 15.8119C52.5011 15.3366 52.3671 14.7395 52.3671 14.0206C52.3671 12.9604 52.7387 12.1805 53.4821 11.6809C54.2254 11.1691 55.3404 10.8888 56.827 10.8401L58.5635 10.7852V10.3466C58.5635 9.82257 58.4234 9.43872 58.1431 9.195C57.875 8.95129 57.4973 8.82943 57.0098 8.82943C56.5224 8.82943 56.0472 8.90254 55.5841 9.04877C55.121 9.18282 54.658 9.35342 54.1949 9.56058L53.2993 7.71443C53.8354 7.43416 54.4264 7.21481 55.0723 7.0564C55.7303 6.89798 56.4127 6.81878 57.1195 6.81878ZM57.5034 12.4121C56.626 12.4364 56.0167 12.5948 55.6755 12.8873C55.3343 13.1798 55.1637 13.5636 55.1637 14.0389C55.1637 14.4532 55.2855 14.7517 55.5293 14.9345C55.773 15.1051 56.0898 15.1904 56.4798 15.1904C57.0647 15.1904 57.5582 15.0198 57.9603 14.6786C58.3625 14.3252 58.5635 13.8317 58.5635 13.198V12.3755L57.5034 12.4121ZM68.1144 17.1828C67.1274 17.1828 66.2866 17.0061 65.592 16.6527C64.8974 16.2871 64.3673 15.7266 64.0017 14.9711C63.6361 14.2155 63.4534 13.2468 63.4534 12.0648C63.4534 10.8462 63.6605 9.85304 64.0748 9.08533C64.4891 8.31763 65.0619 7.75099 65.793 7.38541C66.5364 7.01984 67.3894 6.83705 68.352 6.83705C69.0344 6.83705 69.6255 6.90408 70.1251 7.03812C70.6369 7.17216 71.0817 7.33058 71.4594 7.51336L70.6552 9.61541C70.2287 9.44481 69.8265 9.30468 69.4488 9.195C69.0832 9.08533 68.7176 9.0305 68.352 9.0305C67.8768 9.0305 67.4808 9.14626 67.1639 9.37779C66.8471 9.59713 66.6095 9.93224 66.4511 10.3831C66.3048 10.8218 66.2317 11.3763 66.2317 12.0465C66.2317 12.7045 66.3109 13.2529 66.4693 13.6916C66.6399 14.1181 66.8837 14.441 67.2005 14.6603C67.5173 14.8675 67.9012 14.9711 68.352 14.9711C68.9248 14.9711 69.4305 14.898 69.8692 14.7517C70.3079 14.5933 70.7344 14.3801 71.1487 14.112V16.4334C70.7344 16.7014 70.2957 16.8903 69.8326 17C69.3817 17.1219 68.809 17.1828 68.1144 17.1828ZM76.1693 9.32295C76.1693 9.70071 76.151 10.0785 76.1145 10.4562C76.0901 10.8218 76.0596 11.1935 76.0231 11.5712H76.0596C76.1815 11.4006 76.3034 11.23 76.4252 11.0594C76.5593 10.8888 76.6933 10.7182 76.8274 10.5476C76.9614 10.377 77.1015 10.2125 77.2478 10.0541L80.0444 7.01984H83.1152L79.1487 11.3519L83.3528 17H80.2089L77.3392 12.9604L76.1693 13.8926V17H73.4458V3.1082H76.1693V9.32295ZM88.9848 15.0076C89.2895 15.0076 89.5819 14.9772 89.8622 14.9162C90.1425 14.8553 90.4227 14.7822 90.703 14.6969V16.7258C90.4106 16.8477 90.045 16.9513 89.6063 17.0366C89.1798 17.134 88.7106 17.1828 88.1988 17.1828C87.6017 17.1828 87.0656 17.0853 86.5903 16.8903C86.1272 16.6954 85.7556 16.3602 85.4753 15.885C85.2072 15.3976 85.0732 14.7274 85.0732 13.8743V9.06705H83.7754V7.9155L85.2742 7.00156L86.0602 4.89951H87.7967V7.01984H90.5933V9.06705H87.7967V13.8743C87.7967 14.2521 87.9064 14.5385 88.1257 14.7334C88.3451 14.9162 88.6314 15.0076 88.9848 15.0076ZM98.2812 6.83705C98.4153 6.83705 98.5737 6.84315 98.7565 6.85533C98.9393 6.86752 99.0855 6.8858 99.1952 6.91017L98.9941 9.46918C98.9088 9.44481 98.7809 9.42653 98.6103 9.41435C98.4518 9.38998 98.3117 9.37779 98.1898 9.37779C97.8365 9.37779 97.4953 9.42653 97.1662 9.52402C96.8372 9.60932 96.5387 9.74946 96.2706 9.94443C96.0147 10.1394 95.8075 10.4014 95.6491 10.7304C95.5029 11.0472 95.4298 11.4433 95.4298 11.9185V17H92.7062V7.01984H94.7717L95.1739 8.70148H95.3018C95.4968 8.36028 95.7405 8.04954 96.033 7.76927C96.3254 7.48899 96.6605 7.26356 97.0383 7.09296C97.4282 6.92235 97.8425 6.83705 98.2812 6.83705ZM104.744 6.81878C106.084 6.81878 107.108 7.11123 107.815 7.69615C108.534 8.26888 108.893 9.15235 108.893 10.3466V17H106.992L106.462 15.6474H106.389C106.109 16.0008 105.816 16.2932 105.512 16.5248C105.219 16.7563 104.878 16.9208 104.488 17.0183C104.11 17.128 103.641 17.1828 103.081 17.1828C102.496 17.1828 101.966 17.0731 101.49 16.8538C101.027 16.6222 100.662 16.2749 100.394 15.8119C100.126 15.3366 99.9916 14.7395 99.9916 14.0206C99.9916 12.9604 100.363 12.1805 101.107 11.6809C101.85 11.1691 102.965 10.8888 104.452 10.8401L106.188 10.7852V10.3466C106.188 9.82257 106.048 9.43872 105.768 9.195C105.5 8.95129 105.122 8.82943 104.634 8.82943C104.147 8.82943 103.672 8.90254 103.209 9.04877C102.746 9.18282 102.283 9.35342 101.819 9.56058L100.924 7.71443C101.46 7.43416 102.051 7.21481 102.697 7.0564C103.355 6.89798 104.037 6.81878 104.744 6.81878ZM105.128 12.4121C104.251 12.4364 103.641 12.5948 103.3 12.8873C102.959 13.1798 102.788 13.5636 102.788 14.0389C102.788 14.4532 102.91 14.7517 103.154 14.9345C103.398 15.1051 103.714 15.1904 104.104 15.1904C104.689 15.1904 105.183 15.0198 105.585 14.6786C105.987 14.3252 106.188 13.8317 106.188 13.198V12.3755L105.128 12.4121ZM115.739 17.1828C114.752 17.1828 113.911 17.0061 113.216 16.6527C112.522 16.2871 111.992 15.7266 111.626 14.9711C111.261 14.2155 111.078 13.2468 111.078 12.0648C111.078 10.8462 111.285 9.85304 111.699 9.08533C112.114 8.31763 112.686 7.75099 113.418 7.38541C114.161 7.01984 115.014 6.83705 115.977 6.83705C116.659 6.83705 117.25 6.90408 117.75 7.03812C118.261 7.17216 118.706 7.33058 119.084 7.51336L118.28 9.61541C117.853 9.44481 117.451 9.30468 117.073 9.195C116.708 9.08533 116.342 9.0305 115.977 9.0305C115.501 9.0305 115.105 9.14626 114.788 9.37779C114.472 9.59713 114.234 9.93224 114.076 10.3831C113.929 10.8218 113.856 11.3763 113.856 12.0465C113.856 12.7045 113.935 13.2529 114.094 13.6916C114.264 14.1181 114.508 14.441 114.825 14.6603C115.142 14.8675 115.526 14.9711 115.977 14.9711C116.549 14.9711 117.055 14.898 117.494 14.7517C117.932 14.5933 118.359 14.3801 118.773 14.112V16.4334C118.359 16.7014 117.92 16.8903 117.457 17C117.006 17.1219 116.434 17.1828 115.739 17.1828ZM123.794 9.32295C123.794 9.70071 123.776 10.0785 123.739 10.4562C123.715 10.8218 123.684 11.1935 123.648 11.5712H123.684C123.806 11.4006 123.928 11.23 124.05 11.0594C124.184 10.8888 124.318 10.7182 124.452 10.5476C124.586 10.377 124.726 10.2125 124.872 10.0541L127.669 7.01984H130.74L126.773 11.3519L130.977 17H127.833L124.964 12.9604L123.794 13.8926V17H121.07V3.1082H123.794V9.32295ZM135.129 7.01984V17H132.405V7.01984H135.129ZM133.776 3.1082C134.178 3.1082 134.526 3.20569 134.818 3.40066C135.11 3.58345 135.257 3.93074 135.257 4.44255C135.257 4.94216 135.11 5.28946 134.818 5.48443C134.526 5.6794 134.178 5.77689 133.776 5.77689C133.362 5.77689 133.008 5.6794 132.716 5.48443C132.436 5.28946 132.296 4.94216 132.296 4.44255C132.296 3.93074 132.436 3.58345 132.716 3.40066C133.008 3.20569 133.362 3.1082 133.776 3.1082ZM143.641 6.83705C144.713 6.83705 145.572 7.12951 146.218 7.71443C146.864 8.28716 147.187 9.21328 147.187 10.4928V17H144.463V11.1691C144.463 10.4501 144.336 9.91397 144.08 9.56058C143.824 9.195 143.415 9.01222 142.855 9.01222C142.026 9.01222 141.46 9.29858 141.155 9.87131C140.85 10.4319 140.698 11.2422 140.698 12.3024V17H137.975V7.01984H140.058L140.424 8.29935H140.57C140.789 7.95815 141.058 7.68397 141.374 7.47681C141.691 7.25746 142.045 7.09905 142.435 7.00156C142.824 6.89189 143.227 6.83705 143.641 6.83705ZM153.223 6.83705C153.832 6.83705 154.381 6.95891 154.868 7.20263C155.356 7.44634 155.77 7.81192 156.111 8.29935H156.184L156.404 7.01984H158.707V17.0183C158.707 17.9688 158.518 18.7669 158.14 19.4128C157.774 20.0586 157.22 20.5461 156.477 20.8751C155.733 21.2163 154.813 21.3869 153.717 21.3869C153.01 21.3869 152.352 21.3442 151.743 21.2589C151.145 21.1736 150.56 21.0213 149.988 20.802V18.6268C150.402 18.7974 150.816 18.9375 151.231 19.0472C151.657 19.1691 152.09 19.2544 152.529 19.3031C152.979 19.364 153.43 19.3945 153.881 19.3945C154.588 19.3945 155.112 19.2056 155.453 18.8279C155.806 18.4501 155.983 17.8835 155.983 17.128V16.9269C155.983 16.7197 155.989 16.5065 156.001 16.2871C156.026 16.0678 156.044 15.8728 156.056 15.7022H155.983C155.642 16.2262 155.234 16.604 154.758 16.8355C154.283 17.067 153.747 17.1828 153.15 17.1828C151.968 17.1828 151.042 16.7319 150.372 15.8302C149.714 14.9162 149.385 13.6489 149.385 12.0282C149.385 10.9315 149.537 9.99927 149.842 9.23156C150.146 8.45167 150.585 7.86066 151.158 7.45853C151.743 7.04421 152.431 6.83705 153.223 6.83705ZM154.082 9.04877C153.656 9.04877 153.296 9.16454 153.004 9.39607C152.723 9.61541 152.51 9.95052 152.364 10.4014C152.23 10.8401 152.163 11.3945 152.163 12.0648C152.163 13.064 152.321 13.8134 152.638 14.313C152.955 14.8005 153.449 15.0442 154.119 15.0442C154.472 15.0442 154.777 15.0015 155.033 14.9162C155.289 14.8187 155.496 14.6664 155.654 14.4593C155.825 14.2399 155.953 13.9596 156.038 13.6184C156.123 13.2772 156.166 12.8629 156.166 12.3755V12.0465C156.166 11.3275 156.093 10.7487 155.947 10.31C155.8 9.87131 155.575 9.55448 155.27 9.35951C154.966 9.15235 154.57 9.04877 154.082 9.04877Z" fill="white"/>
<path d="M48.0933 34.9443H41.8328V24.0685H48.0933V25.9573H44.1329V28.3488H47.8191V30.2376H44.1329V33.0403H48.0933V34.9443ZM51.8795 30.6945L49.1987 26.6275H51.7729L53.3875 29.2779L55.0174 26.6275H57.5916L54.8803 30.6945L57.7135 34.9443H55.1392L53.3875 32.0959L51.6358 34.9443H49.0616L51.8795 30.6945ZM63.6103 26.4752C64.5445 26.4752 65.301 26.8408 65.8799 27.5719C66.4587 28.2929 66.7481 29.3592 66.7481 30.7707C66.7481 31.7151 66.611 32.5123 66.3368 33.1622C66.0627 33.8019 65.6869 34.2843 65.2097 34.6092C64.7324 34.9342 64.1789 35.0967 63.5493 35.0967C63.1533 35.0967 62.808 35.0459 62.5135 34.9443C62.2292 34.8428 61.9855 34.7108 61.7824 34.5483C61.5793 34.3858 61.4016 34.2132 61.2493 34.0304H61.1274C61.168 34.2233 61.1985 34.4264 61.2188 34.6397C61.2391 34.8428 61.2493 35.0459 61.2493 35.249V38.6001H58.9797V26.6275H60.8228L61.1426 27.709H61.2493C61.4016 27.4856 61.5844 27.2825 61.7976 27.0997C62.0109 26.9068 62.2648 26.7545 62.5592 26.6428C62.8639 26.5311 63.2142 26.4752 63.6103 26.4752ZM62.8791 28.2879C62.4831 28.2879 62.1683 28.3691 61.9347 28.5316C61.7012 28.694 61.5285 28.9428 61.4168 29.2779C61.3153 29.6029 61.2594 30.0142 61.2493 30.5118V30.7555C61.2493 31.2937 61.3 31.7506 61.4016 32.1264C61.5031 32.4919 61.6758 32.7712 61.9195 32.9641C62.1632 33.1571 62.4932 33.2536 62.9096 33.2536C63.2548 33.2536 63.5392 33.1571 63.7626 32.9641C63.986 32.7712 64.1535 32.4869 64.2653 32.1111C64.377 31.7354 64.4328 31.2784 64.4328 30.7402C64.4328 29.9279 64.3059 29.3186 64.052 28.9124C63.8083 28.496 63.4173 28.2879 62.8791 28.2879ZM70.8884 34.9443H68.6188V23.3678H70.8884V34.9443ZM80.8151 30.7707C80.8151 31.4612 80.7186 32.0756 80.5257 32.6138C80.3429 33.152 80.0738 33.609 79.7184 33.9847C79.3731 34.3503 78.9517 34.6295 78.4541 34.8225C77.9565 35.0053 77.3929 35.0967 76.7633 35.0967C76.1845 35.0967 75.6463 35.0053 75.1487 34.8225C74.6613 34.6295 74.2398 34.3503 73.8844 33.9847C73.529 33.609 73.2497 33.152 73.0466 32.6138C72.8537 32.0756 72.7572 31.4612 72.7572 30.7707C72.7572 29.8466 72.9197 29.0698 73.2447 28.4402C73.5696 27.8004 74.0367 27.313 74.646 26.9779C75.2553 26.6428 75.9763 26.4752 76.809 26.4752C77.5909 26.4752 78.2814 26.6428 78.8806 26.9779C79.4797 27.313 79.9519 27.8004 80.2972 28.4402C80.6424 29.0698 80.8151 29.8466 80.8151 30.7707ZM75.0725 30.7707C75.0725 31.3191 75.1284 31.7811 75.2401 32.1568C75.3619 32.5224 75.5498 32.8017 75.8037 32.9946C76.0575 33.1774 76.3876 33.2688 76.7938 33.2688C77.2 33.2688 77.5249 33.1774 77.7686 32.9946C78.0225 32.8017 78.2053 32.5224 78.317 32.1568C78.4388 31.7811 78.4998 31.3191 78.4998 30.7707C78.4998 30.2223 78.4388 29.7654 78.317 29.3998C78.2053 29.0342 78.0225 28.76 77.7686 28.5773C77.5148 28.3945 77.1847 28.3031 76.7785 28.3031C76.1794 28.3031 75.7427 28.5113 75.4686 28.9276C75.2045 29.3338 75.0725 29.9482 75.0725 30.7707ZM87.3366 26.4752C87.4483 26.4752 87.5803 26.4803 87.7326 26.4904C87.885 26.5006 88.0068 26.5158 88.0982 26.5361L87.9307 28.6687C87.8596 28.6483 87.753 28.6331 87.6108 28.623C87.4788 28.6026 87.362 28.5925 87.2605 28.5925C86.966 28.5925 86.6816 28.6331 86.4074 28.7144C86.1333 28.7854 85.8845 28.9022 85.6611 29.0647C85.4478 29.2272 85.2752 29.4455 85.1432 29.7197C85.0213 29.9837 84.9604 30.3137 84.9604 30.7098V34.9443H82.6908V26.6275H84.412L84.7471 28.0289H84.8538C85.0162 27.7446 85.2193 27.4856 85.463 27.2521C85.7068 27.0185 85.986 26.8306 86.3008 26.6885C86.6258 26.5463 86.971 26.4752 87.3366 26.4752ZM92.7375 26.4752C93.5093 26.4752 94.1693 26.6225 94.7177 26.9169C95.2762 27.2114 95.7078 27.6379 96.0124 28.1965C96.3171 28.755 96.4694 29.4404 96.4694 30.2528V31.3495H91.1077C91.128 31.9893 91.3158 32.4919 91.6712 32.8575C92.0368 33.2231 92.5395 33.4059 93.1792 33.4059C93.7174 33.4059 94.2049 33.3551 94.6415 33.2536C95.0782 33.1419 95.5301 32.9743 95.9972 32.7509V34.5026C95.591 34.7057 95.1594 34.8529 94.7025 34.9443C94.2557 35.0459 93.7124 35.0967 93.0726 35.0967C92.2399 35.0967 91.5037 34.9443 90.8639 34.6397C90.2242 34.3249 89.7215 33.8527 89.3559 33.2231C88.9904 32.5935 88.8076 31.8014 88.8076 30.8469C88.8076 29.872 88.9701 29.0647 89.295 28.4249C89.6301 27.775 90.0922 27.2876 90.6812 26.9626C91.2701 26.6377 91.9556 26.4752 92.7375 26.4752ZM92.7527 28.0898C92.3161 28.0898 91.9505 28.232 91.656 28.5163C91.3717 28.8007 91.2041 29.2424 91.1534 29.8415H94.3369C94.3369 29.5064 94.276 29.2069 94.1541 28.9428C94.0424 28.6788 93.8698 28.4706 93.6362 28.3183C93.4026 28.166 93.1082 28.0898 92.7527 28.0898ZM102.956 26.4752C103.067 26.4752 103.199 26.4803 103.352 26.4904C103.504 26.5006 103.626 26.5158 103.717 26.5361L103.55 28.6687C103.479 28.6483 103.372 28.6331 103.23 28.623C103.098 28.6026 102.981 28.5925 102.879 28.5925C102.585 28.5925 102.301 28.6331 102.026 28.7144C101.752 28.7854 101.503 28.9022 101.28 29.0647C101.067 29.2272 100.894 29.4455 100.762 29.7197C100.64 29.9837 100.579 30.3137 100.579 30.7098V34.9443H98.3098V26.6275H100.031L100.366 28.0289H100.473C100.635 27.7446 100.838 27.4856 101.082 27.2521C101.326 27.0185 101.605 26.8306 101.92 26.6885C102.245 26.5463 102.59 26.4752 102.956 26.4752Z" fill="white"/>
<path d="M36.2725 19.2307H149.181" stroke="white" stroke-width="2.66564"/>
</svg>
